# xmcd CD database file
#
# Track frame offsets:
#	150
#	27220
#	61613
#	92088
#	114717
#	144575
#	176345
#	202730
#	230375
#
# Disc length: 3521 seconds
#
# Revision: 0
# Processed by: cddbd v1.5.1PL0 Copyright (c) Steve Scherf et al.
# Submitted via: CDex 1.51
#
DISCID=6a0dbf09
DTITLE=Kellye Gray - blue and pink (a live concert)
DYEAR=2002
DGENRE=Blues
TTITLE0=Corcovado
TTITLE1=It's Always 4 am
TTITLE2=Willow Weep for Me
TTITLE3=House is Not a Home
TTITLE4=Estate
TTITLE5=Scotch and Soda
TTITLE6=If You Never Come to Me
TTITLE7=Sophisticated Lady
TTITLE8=Alfie
EXTD=YEAR: 2002
EXTT0=
EXTT1=
EXTT2=
EXTT3=
EXTT4=
EXTT5=
EXTT6=
EXTT7=
EXTT8=
PLAYORDER=
